<svg xmlns="http://www.w3.org/2000/svg" viewBox="0 0 96.24 118.73"><defs><style>.cls-1{fill:#ef2b71;}.cls-2{fill:#d60d6d;}</style></defs><g id="Layer_2" data-name="Layer 2"><g id="Layer_1-2" data-name="Layer 1"><path class="cls-1" d="M92.45,28.92,53.17,1.58a8.83,8.83,0,0,0-10.09,0L3.79,28.92A8.87,8.87,0,0,0,0,36.18V50a8.87,8.87,0,0,1,3.79-7.25L43.08,15.4a8.83,8.83,0,0,1,10.09,0L92.45,42.74A8.87,8.87,0,0,1,96.24,50V36.18A8.87,8.87,0,0,0,92.45,28.92Z"/><path class="cls-2" d="M92.45,42.74,53.17,15.4a8.83,8.83,0,0,0-10.09,0L3.79,42.74A8.87,8.87,0,0,0,0,50v59.9a8.84,8.84,0,0,0,14,7.16l28.92-20.9a8.83,8.83,0,0,1,10.36,0l28.92,20.9a8.84,8.84,0,0,0,14-7.16V50A8.87,8.87,0,0,0,92.45,42.74ZM32.52,52.15h31.2a6.73,6.73,0,0,1,3.94,12.19L52.06,75.61a6.71,6.71,0,0,1-7.89,0L28.57,64.34A6.73,6.73,0,0,1,32.52,52.15Z"/></g></g></svg>